<svg width="168" height="80" viewBox="0 0 168 80" fill="none" xmlns="http://www.w3.org/2000/svg">
<path d="M17.755 21.635C21.677 21.635 25.1043 22.43 28.037 24.02C31.005 25.5747 33.284 27.7653 34.874 30.592C36.464 33.4187 37.259 36.6517 37.259 40.291C37.259 43.895 36.4463 47.1103 34.821 49.937C33.231 52.7637 30.952 54.9897 27.984 56.615C25.0513 58.205 21.6417 59 17.755 59H2.968V21.635H17.755ZM16.96 49.831C19.9987 49.831 22.3837 49.0007 24.115 47.34C25.8463 45.6793 26.712 43.3297 26.712 40.291C26.712 37.217 25.8463 34.8497 24.115 33.189C22.3837 31.493 19.9987 30.645 16.96 30.645H13.356V49.831H16.96ZM63.9366 39.814C66.1273 40.3087 67.8586 41.404 69.1306 43.1C70.438 44.7607 71.0916 46.6687 71.0916 48.824C71.0916 52.004 69.9963 54.495 67.8056 56.297C65.615 58.099 62.541 59 58.5836 59H40.0866V21.635H58.0006C61.8166 21.635 64.8023 22.483 66.9576 24.179C69.1483 25.875 70.2436 28.26 70.2436 31.334C70.2436 33.5247 69.6606 35.362 68.4946 36.846C67.364 38.2947 65.8446 39.284 63.9366 39.814ZM50.4746 36.475H55.7216C58.3363 36.475 59.6436 35.3973 59.6436 33.242C59.6436 31.016 58.3363 29.903 55.7216 29.903H50.4746V36.475ZM56.5166 50.626C59.1313 50.626 60.4386 49.5307 60.4386 47.34C60.4386 46.2093 60.0853 45.3437 59.3786 44.743C58.7073 44.1423 57.7356 43.842 56.4636 43.842H50.4746V50.626H56.5166ZM84.1773 29.956V36.051H96.1023V43.948H84.1773V50.679H97.6923V59H73.7893V21.635H97.6923V29.956H84.1773ZM111.358 51.05H122.965V59H100.97V21.635H111.358V51.05ZM150.484 21.635V29.903H135.538V36.475H146.562V44.372H135.538V59H125.15V21.635H150.484Z" fill="#222222"/>
<path d="M28.037 24.02L27.5604 24.8991L27.5667 24.9025L27.573 24.9058L28.037 24.02ZM34.874 30.592L35.7456 30.1017L34.874 30.592ZM34.821 49.937L33.9541 49.4385L33.9494 49.4467L34.821 49.937ZM27.984 56.615L28.4606 57.4941L28.4643 57.4921L27.984 56.615ZM2.968 59H1.968V60H2.968V59ZM2.968 21.635V20.635H1.968V21.635H2.968ZM24.115 33.189L23.4152 33.9034L23.4228 33.9107L24.115 33.189ZM13.356 30.645V29.645H12.356V30.645H13.356ZM13.356 49.831H12.356V50.831H13.356V49.831ZM17.755 22.635C21.5398 22.635 24.7978 23.4013 27.5604 24.8991L28.5136 23.1409C25.4109 21.4587 21.8142 20.635 17.755 20.635V22.635ZM27.573 24.9058C30.3757 26.3739 32.5105 28.4299 34.0024 31.0823L35.7456 30.1017C34.0575 27.1008 31.6343 24.7754 28.501 23.1342L27.573 24.9058ZM34.0024 31.0823C35.4983 33.7417 36.259 36.802 36.259 40.291H38.259C38.259 36.5013 37.4297 33.0957 35.7456 30.1017L34.0024 31.0823ZM36.259 40.291C36.259 43.739 35.4833 46.7791 33.9541 49.4385L35.6879 50.4355C37.4094 47.4416 38.259 44.051 38.259 40.291H36.259ZM33.9494 49.4467C32.4552 52.1031 30.3151 54.1983 27.5037 55.7379L28.4643 57.4921C31.5889 55.781 34.0068 53.4242 35.6926 50.4273L33.9494 49.4467ZM27.5074 55.7359C24.7435 57.2344 21.5028 58 17.755 58V60C21.7805 60 25.3591 59.1756 28.4606 57.4941L27.5074 55.7359ZM17.755 58H2.968V60H17.755V58ZM3.968 59V21.635H1.968V59H3.968ZM2.968 22.635H17.755V20.635H2.968V22.635ZM16.96 50.831C20.1848 50.831 22.8436 49.9452 24.8072 48.0617L23.4228 46.6183C21.9238 48.0562 19.8125 48.831 16.96 48.831V50.831ZM24.8072 48.0617C26.7845 46.1651 27.712 43.5252 27.712 40.291H25.712C25.712 43.1341 24.9082 45.1936 23.4228 46.6183L24.8072 48.0617ZM27.712 40.291C27.712 37.0254 26.7867 34.366 24.8072 32.4673L23.4228 33.9107C24.9059 35.3333 25.712 37.4086 25.712 40.291H27.712ZM24.8148 32.4746C22.852 30.5519 20.1905 29.645 16.96 29.645V31.645C19.8069 31.645 21.9154 32.4341 23.4152 33.9034L24.8148 32.4746ZM16.96 29.645H13.356V31.645H16.96V29.645ZM12.356 30.645V49.831H14.356V30.645H12.356ZM13.356 50.831H16.96V48.831H13.356V50.831ZM63.9366 39.814L63.669 38.8505L63.7164 40.7894L63.9366 39.814ZM69.1306 43.1L68.3306 43.7L68.3377 43.7094L68.3449 43.7186L69.1306 43.1ZM67.8056 56.297L68.4409 57.0693L67.8056 56.297ZM40.0866 59H39.0866V60H40.0866V59ZM40.0866 21.635V20.635H39.0866V21.635H40.0866ZM66.9576 24.179L66.3392 24.9649L66.3455 24.9697L66.9576 24.179ZM68.4946 36.846L67.7083 36.2282L67.7063 36.2307L68.4946 36.846ZM50.4746 36.475H49.4746V37.475H50.4746V36.475ZM50.4746 29.903V28.903H49.4746V29.903H50.4746ZM59.3786 44.743L58.7118 45.4882L58.7213 45.4967L58.731 45.5049L59.3786 44.743ZM50.4746 43.842V42.842H49.4746V43.842H50.4746ZM50.4746 50.626H49.4746V51.626H50.4746V50.626ZM63.7164 40.7894C65.6902 41.2352 67.2101 42.2059 68.3306 43.7L69.9306 42.5C68.5072 40.6021 66.5644 39.3822 64.1569 38.8386L63.7164 40.7894ZM68.3449 43.7186C69.5105 45.1992 70.0916 46.8882 70.0916 48.824H72.0916C72.0916 46.4491 71.3654 44.3222 69.9164 42.4814L68.3449 43.7186ZM70.0916 48.824C70.0916 51.7459 69.1003 53.9372 67.1704 55.5247L68.4409 57.0693C70.8923 55.0528 72.0916 52.2621 72.0916 48.824H70.0916ZM67.1704 55.5247C65.2179 57.1308 62.3997 58 58.5836 58V60C62.6822 60 66.012 59.0672 68.4409 57.0693L67.1704 55.5247ZM58.5836 58H40.0866V60H58.5836V58ZM41.0866 59V21.635H39.0866V59H41.0866ZM40.0866 22.635H58.0006V20.635H40.0866V22.635ZM58.0006 22.635C61.6787 22.635 64.4178 23.4529 66.3392 24.9649L67.576 23.3931C65.1868 21.5131 61.9546 20.635 58.0006 20.635V22.635ZM66.3455 24.9697C68.2624 26.4538 69.2436 28.5306 69.2436 31.334H71.2436C71.2436 27.9894 70.0342 25.2962 67.5698 23.3883L66.3455 24.9697ZM69.2436 31.334C69.2436 33.3382 68.7143 34.9478 67.7083 36.2282L69.281 37.4638C70.607 35.7762 71.2436 33.7111 71.2436 31.334H69.2436ZM67.7063 36.2307C66.7179 37.4972 65.3876 38.3731 63.669 38.8505L64.2043 40.7775C66.3017 40.1949 68.0101 39.0922 69.283 37.4613L67.7063 36.2307ZM50.4746 37.475H55.7216V35.475H50.4746V37.475ZM55.7216 37.475C57.1412 37.475 58.3918 37.1864 59.2992 36.4384C60.2436 35.6599 60.6436 34.5302 60.6436 33.242H58.6436C58.6436 34.1091 58.39 34.596 58.0271 34.8951C57.6272 35.2248 56.9167 35.475 55.7216 35.475V37.475ZM60.6436 33.242C60.6436 31.929 60.2505 30.7758 59.3114 29.9763C58.4031 29.203 57.1473 28.903 55.7216 28.903V30.903C56.9106 30.903 57.6159 31.1595 58.0149 31.4992C58.3831 31.8127 58.6436 32.329 58.6436 33.242H60.6436ZM55.7216 28.903H50.4746V30.903H55.7216V28.903ZM49.4746 29.903V36.475H51.4746V29.903H49.4746ZM56.5166 51.626C57.9392 51.626 59.1924 51.3317 60.1004 50.571C61.0422 49.7819 61.4386 48.6405 61.4386 47.34H59.4386C59.4386 48.2302 59.1814 48.7317 58.8159 49.038C58.4165 49.3726 57.7087 49.626 56.5166 49.626V51.626ZM61.4386 47.34C61.4386 45.9863 61.005 44.813 60.0263 43.9811L58.731 45.5049C59.1656 45.8744 59.4386 46.4324 59.4386 47.34H61.4386ZM60.0454 43.9978C59.1274 43.1763 57.8808 42.842 56.4636 42.842V44.842C57.5905 44.842 58.2872 45.1083 58.7118 45.4882L60.0454 43.9978ZM56.4636 42.842H50.4746V44.842H56.4636V42.842ZM49.4746 43.842V50.626H51.4746V43.842H49.4746ZM50.4746 51.626H56.5166V49.626H50.4746V51.626ZM84.1773 29.956V28.956H83.1773V29.956H84.1773ZM84.1773 36.051H83.1773V37.051H84.1773V36.051ZM96.1022 36.051H97.1022V35.051H96.1022V36.051ZM96.1022 43.948V44.948H97.1022V43.948H96.1022ZM84.1773 43.948V42.948H83.1773V43.948H84.1773ZM84.1773 50.679H83.1773V51.679H84.1773V50.679ZM97.6923 50.679H98.6923V49.679H97.6923V50.679ZM97.6923 59V60H98.6923V59H97.6923ZM73.7893 59H72.7893V60H73.7893V59ZM73.7893 21.635V20.635H72.7893V21.635H73.7893ZM97.6923 21.635H98.6923V20.635H97.6923V21.635ZM97.6923 29.956V30.956H98.6923V29.956H97.6923ZM83.1773 29.956V36.051H85.1773V29.956H83.1773ZM84.1773 37.051H96.1022V35.051H84.1773V37.051ZM95.1022 36.051V43.948H97.1022V36.051H95.1022ZM96.1022 42.948H84.1773V44.948H96.1022V42.948ZM83.1773 43.948V50.679H85.1773V43.948H83.1773ZM84.1773 51.679H97.6923V49.679H84.1773V51.679ZM96.6923 50.679V59H98.6923V50.679H96.6923ZM97.6923 58H73.7893V60H97.6923V58ZM74.7893 59V21.635H72.7893V59H74.7893ZM73.7893 22.635H97.6923V20.635H73.7893V22.635ZM96.6923 21.635V29.956H98.6923V21.635H96.6923ZM97.6923 28.956H84.1773V30.956H97.6923V28.956ZM111.358 51.05H110.358V52.05H111.358V51.05ZM122.965 51.05H123.965V50.05H122.965V51.05ZM122.965 59V60H123.965V59H122.965ZM100.97 59H99.9704V60H100.97V59ZM100.97 21.635V20.635H99.9704V21.635H100.97ZM111.358 21.635H112.358V20.635H111.358V21.635ZM111.358 52.05H122.965V50.05H111.358V52.05ZM121.965 51.05V59H123.965V51.05H121.965ZM122.965 58H100.97V60H122.965V58ZM101.97 59V21.635H99.9704V59H101.97ZM100.97 22.635H111.358V20.635H100.97V22.635ZM110.358 21.635V51.05H112.358V21.635H110.358ZM150.484 21.635H151.484V20.635H150.484V21.635ZM150.484 29.903V30.903H151.484V29.903H150.484ZM135.538 29.903V28.903H134.538V29.903H135.538ZM135.538 36.475H134.538V37.475H135.538V36.475ZM146.562 36.475H147.562V35.475H146.562V36.475ZM146.562 44.372V45.372H147.562V44.372H146.562ZM135.538 44.372V43.372H134.538V44.372H135.538ZM135.538 59V60H136.538V59H135.538ZM125.15 59H124.15V60H125.15V59ZM125.15 21.635V20.635H124.15V21.635H125.15ZM149.484 21.635V29.903H151.484V21.635H149.484ZM150.484 28.903H135.538V30.903H150.484V28.903ZM134.538 29.903V36.475H136.538V29.903H134.538ZM135.538 37.475H146.562V35.475H135.538V37.475ZM145.562 36.475V44.372H147.562V36.475H145.562ZM146.562 43.372H135.538V45.372H146.562V43.372ZM134.538 44.372V59H136.538V44.372H134.538ZM135.538 58H125.15V60H135.538V58ZM126.15 59V21.635H124.15V59H126.15ZM125.15 22.635H150.484V20.635H125.15V22.635Z" fill="#DEDEDE"/>
<circle cx="160.5" cy="51.5" r="7.5" fill="#FD9D0E"/>
</svg>
