<svg width="168" height="80" viewBox="0 0 168 80" fill="none" xmlns="http://www.w3.org/2000/svg">
<path d="M17.755 21.635C21.677 21.635 25.1043 22.43 28.037 24.02C31.005 25.5747 33.284 27.7653 34.874 30.592C36.464 33.4187 37.259 36.6517 37.259 40.291C37.259 43.895 36.4463 47.1103 34.821 49.937C33.231 52.7637 30.952 54.9897 27.984 56.615C25.0513 58.205 21.6417 59 17.755 59H2.968V21.635H17.755ZM16.96 49.831C19.9987 49.831 22.3837 49.0007 24.115 47.34C25.8463 45.6793 26.712 43.3297 26.712 40.291C26.712 37.217 25.8463 34.8497 24.115 33.189C22.3837 31.493 19.9987 30.645 16.96 30.645H13.356V49.831H16.96ZM63.9366 39.814C66.1273 40.3087 67.8586 41.404 69.1306 43.1C70.438 44.7607 71.0916 46.6687 71.0916 48.824C71.0916 52.004 69.9963 54.495 67.8056 56.297C65.615 58.099 62.541 59 58.5836 59H40.0866V21.635H58.0006C61.8166 21.635 64.8023 22.483 66.9576 24.179C69.1483 25.875 70.2436 28.26 70.2436 31.334C70.2436 33.5247 69.6606 35.362 68.4946 36.846C67.364 38.2947 65.8446 39.284 63.9366 39.814ZM50.4746 36.475H55.7216C58.3363 36.475 59.6436 35.3973 59.6436 33.242C59.6436 31.016 58.3363 29.903 55.7216 29.903H50.4746V36.475ZM56.5166 50.626C59.1313 50.626 60.4386 49.5307 60.4386 47.34C60.4386 46.2093 60.0853 45.3437 59.3786 44.743C58.7073 44.1423 57.7356 43.842 56.4636 43.842H50.4746V50.626H56.5166ZM84.1773 29.956V36.051H96.1023V43.948H84.1773V50.679H97.6923V59H73.7893V21.635H97.6923V29.956H84.1773ZM111.358 51.05H122.965V59H100.97V21.635H111.358V51.05ZM150.484 21.635V29.903H135.538V36.475H146.562V44.372H135.538V59H125.15V21.635H150.484Z" fill="#222222"/>
<circle cx="160.5" cy="51.5" r="7.5" fill="#FD9D0E"/>
</svg>
